<svg xmlns="http://www.w3.org/2000/svg" viewBox="0 0 800 400" fill="none">
  <defs>
    <linearGradient id="bg" x1="0" y1="0" x2="800" y2="400">
      <stop offset="0%" stop-color="#0f0f1a"/>
      <stop offset="100%" stop-color="#1a1a2e"/>
    </linearGradient>
    <linearGradient id="line1" x1="0" y1="0" x2="1" y2="0">
      <stop offset="0%" stop-color="#e94560"/>
      <stop offset="100%" stop-color="#ff6b8a"/>
    </linearGradient>
    <filter id="glow1">
      <feGaussianBlur stdDeviation="2.5" result="blur"/>
      <feMerge><feMergeNode in="blur"/><feMergeNode in="SourceGraphic"/></feMerge>
    </filter>
  </defs>
  <rect width="800" height="400" fill="url(#bg)" rx="12"/>
  <g opacity="0.06">
    <line x1="80" y1="60" x2="80" y2="360" stroke="#fff" stroke-width="0.5"/>
    <line x1="180" y1="60" x2="180" y2="360" stroke="#fff" stroke-width="0.5"/>
    <line x1="280" y1="60" x2="280" y2="360" stroke="#fff" stroke-width="0.5"/>
    <line x1="380" y1="60" x2="380" y2="360" stroke="#fff" stroke-width="0.5"/>
    <line x1="480" y1="60" x2="480" y2="360" stroke="#fff" stroke-width="0.5"/>
    <line x1="580" y1="60" x2="580" y2="360" stroke="#fff" stroke-width="0.5"/>
    <line x1="680" y1="60" x2="680" y2="360" stroke="#fff" stroke-width="0.5"/>
    <line x1="780" y1="60" x2="780" y2="360" stroke="#fff" stroke-width="0.5"/>
  </g>
  <text x="65" y="100" text-anchor="end" font-family="monospace" font-size="11" fill="#666">25</text>
  <text x="65" y="187" text-anchor="end" font-family="monospace" font-size="11" fill="#666">15</text>
  <text x="65" y="275" text-anchor="end" font-family="monospace" font-size="11" fill="#666">5</text>
  <text x="65" y="362" text-anchor="end" font-family="monospace" font-size="11" fill="#666">0</text>
  <text x="88" y="382" font-family="monospace" font-size="10" fill="#555">Day 1</text>
  <text x="188" y="382" font-family="monospace" font-size="10" fill="#555">Day 7</text>
  <text x="285" y="382" font-family="monospace" font-size="10" fill="#555">Day 14</text>
  <text x="383" y="382" font-family="monospace" font-size="10" fill="#555">Day 21</text>
  <text x="478" y="382" font-family="monospace" font-size="10" fill="#555">Day 30</text>
  <text x="578" y="382" font-family="monospace" font-size="10" fill="#555">Day 45</text>
  <text x="678" y="382" font-family="monospace" font-size="10" fill="#555">Day 60</text>
  <line x1="80" y1="60" x2="80" y2="360" stroke="#333" stroke-width="1"/>
  <line x1="80" y1="360" x2="780" y2="360" stroke="#333" stroke-width="1"/>
  <polyline points="100,105 180,105 280,105 380,105 480,105 580,105 680,110 760,108" stroke="#0f3460" stroke-width="2.5" fill="none" stroke-dasharray="6 4" opacity="0.5"/>
  <text x="700" y="95" font-family="system-ui" font-size="11" fill="#4a7db5">Without Taste Engine</text>
  <text x="700" y="110" font-family="system-ui" font-size="10" fill="#555">~20 corrections/day</text>
  <polyline points="100,105 140,90 180,115 220,130 260,145 300,165 340,190 380,210 420,235 460,258 500,278 540,298 580,315 620,330 660,340 700,347 740,352 760,355" stroke="url(#line1)" stroke-width="3" fill="none" filter="url(#glow1)"/>
  <circle cx="100" cy="105" r="4" fill="#e94560"/>
  <circle cx="180" cy="115" r="4" fill="#e94560"/>
  <circle cx="280" cy="145" r="3.5" fill="#e94560"/>
  <circle cx="380" cy="210" r="3" fill="#e94560" opacity="0.8"/>
  <circle cx="480" cy="278" r="3" fill="#e94560" opacity="0.7"/>
  <circle cx="580" cy="315" r="3" fill="#e94560" opacity="0.6"/>
  <circle cx="680" cy="340" r="3" fill="#e94560" opacity="0.5"/>
  <circle cx="760" cy="355" r="3" fill="#e94560" opacity="0.4"/>
  <text x="640" y="270" font-family="system-ui" font-size="11" fill="#ff6b8a">With Taste Engine</text>
  <text x="640" y="285" font-family="system-ui" font-size="10" fill="#555">~2-3 corrections/session</text>
  <path d="M100,105 Q200,65 300,100 Q400,140 500,220 Q600,300 760,355 L760,350 Q600,295 500,215 Q400,135 300,95 Q200,60 100,100 Z" fill="#e94560" opacity="0.04"/>
  <rect x="420" y="310" width="200" height="40" rx="6" fill="#e94560" opacity="0.08" stroke="#e94560" stroke-width="0.5"/>
  <text x="520" y="328" text-anchor="middle" font-family="system-ui" font-size="11" fill="#ff6b8a" font-weight="600">~$11,500/yr productivity saved</text>
  <text x="520" y="342" text-anchor="middle" font-family="system-ui" font-size="10" fill="#666">85% reduction in corrections</text>
</svg>
